# xmcd
#
# Track frame offsets: 
#        150
#        27155
#        48777
#        64097
#        85942
#        105500
#        125787
#        146160
#        163240
#        184955
#        204310
#        221562
#        238185
#        256087
#        278757
#        298672
#
# Disc length: 4260 seconds
#
# Revision: 0
# Processed by: cddbd v1.5.2PL0 Copyright (c) Steve Scherf et al.
# Submitted via: ExactAudioCopy v1.0b3
#
DISCID=f210a210
DTITLE=Rhapsody - Tales From The Emerald Sword Saga
DYEAR=2004
DGENRE=Metal
TTITLE0=Warrior Of Ice
TTITLE1=Rage Of The Winter (Symphonic Version)
TTITLE2=Forest Of Unicorns
TTITLE3=Land Of Immortals (Remix)
TTITLE4=Emerald Sword
TTITLE5=Wisdom Of The Kings
TTITLE6=Wings Of Destiny
TTITLE7=Riding The Wings Of Eternity (Edit)
TTITLE8=Dawn Of Victory
TTITLE9=Holy Thunderforce (Remix)
TTITLE10=The Village Of Dwarves
TTITLE11=Rain Of A Thousand Flames
TTITLE12=Knightrider Of Doom
TTITLE13=The March Of The Swordmaster
TTITLE14=Power Of The Dragonflame
TTITLE15=Lamento Eroico
EXTD=
EXTT0=
EXTT1=
EXTT2=
EXTT3=
EXTT4=
EXTT5=
EXTT6=
EXTT7=
EXTT8=
EXTT9=
EXTT10=
EXTT11=
EXTT12=
EXTT13=
EXTT14=
EXTT15=
PLAYORDER=
